<svg xmlns="http://www.w3.org/2000/svg" xmlns:xlink="http://www.w3.org/1999/xlink" version="1.1" width="1080" height="1080" viewBox="0 0 1080 1080" xml:space="preserve">
<desc>Created with Fabric.js 3.5.0</desc>
<defs>
</defs>
<rect x="0" y="0" width="100%" height="100%" fill="#ffffff"/>
<g transform="matrix(6.2038 0 0 6.2038 540.0028 540.0028)" id="787978">
<path style="stroke: none; stroke-width: 1; stroke-dasharray: none; stroke-linecap: butt; stroke-dashoffset: 0; stroke-linejoin: miter; stroke-miterlimit: 4; is-custom-font: none; font-file-url: none; fill: rgb(0,153,255); fill-rule: nonzero; opacity: 1;" vector-effect="non-scaling-stroke" transform=" translate(-67.5, -67.5)" d="M 67.5 135 C 104.779 135 135 104.779 135 67.5 C 135 30.2208 104.779 0 67.5 0 C 30.2208 0 0 30.2208 0 67.5 C 0 104.779 30.2208 135 67.5 135 Z" stroke-linecap="round"/>
</g>
<g transform="matrix(1 0 0 1 459.113 540)" style="" id="447517">
		
<path xml:space="preserve" font-family="Italianno" font-size="554" font-style="normal" font-weight="normal" style="stroke: none; stroke-width: 1; stroke-dasharray: none; stroke-linecap: butt; stroke-dashoffset: 0; stroke-linejoin: miter; stroke-miterlimit: 4; is-custom-font: none; font-file-url: none; fill: rgb(255,255,255); fill-rule: nonzero; opacity: 1; white-space: pre;" d="M11.63 179.02L11.63 179.02Q-21.61 179.02-21.61 145.78L-21.61 145.78Q-21.61 128.05-13.85 108.11Q-6.09 88.16-2.77 79.30L-2.77 79.30Q3.32 64.34 21.05 29.44L21.05 29.44Q48.75-29.28 64.82-55.88L64.82-55.88L-94.73 112.54Q-96.40 123.07-109.14 128.05L-109.14 128.05Q-114.68 130.27-128.53 146.89L-128.53 146.89Q-129.08 147.44-130.74 147.44Q-132.41 147.44-133.79 146.33Q-135.18 145.23-134.62 144.67L-134.62 144.67Q-120.22 126.39-119.66 94.26L-119.66 94.26L-116.34-66.96Q-116.34-91.33-103.04-107.40L-103.04-107.40Q-125.20-90.78-136.28-68.06L-136.28-68.06Q-140.72-59.20-160.11-9.89L-160.11-9.89Q-204.43 99.80-245.42 143.56L-245.42 143.56Q-259.27 158.52-280.88 169.05Q-302.48 179.57-320.77 179.57Q-339.05 179.57-354.01 169.60L-354.01 169.60Q-381.71 150.77-381.71 109.22L-381.71 109.22Q-381.71 102.01-379.49 101.46L-379.49 101.46Q-375.61 100.91-375.61 105.89L-375.61 105.89Q-375.61 131.38-363.15 144.95Q-350.68 158.52-330.18 158.52L-330.18 158.52Q-294.73 158.52-259.27 119.19L-259.27 119.19Q-229.36 87.06-204.43 43.29L-204.43 43.29Q-197.22 30.55-193.90 24.73Q-190.58 18.91-183.37 3.96Q-176.17-11.00-173.96-15.43L-173.96-15.43Q-156.78-52.55-154.01-58.65L-154.01-58.65Q-133.51-102.97-96.40-114.05L-96.40-114.05L-95.84-114.60L-126.31-114.60Q-214.40-114.60-231.57-89.12L-231.57-89.12Q-236.56-81.36-236.56-74.16L-236.56-74.16Q-236.56-49.78-218.83-41.47L-218.83-41.47Q-214.95-39.81-219.11-37.59Q-223.26-35.38-227.97-37.87Q-232.68-40.36-243.21-52.00L-243.21-52.00Q-258.16-69.73-258.16-83.02Q-258.16-96.32-249.58-106.29Q-240.99-116.26-214.40-120.69L-214.40-120.69Q-176.17-127.90-127.42-127.90L-127.42-127.90Q-125.76-127.90-125.20-127.90L-125.20-127.90L-65.37-127.90Q-60.94-128.45-66.20-124.02Q-71.47-119.59-72.57-119.59L-72.57-119.59Q-99.17-114.05-99.17-71.94Q-99.17-29.84-94.73 95.37L-94.73 95.37L-94.73 98.69L97.50-104.07Q119.66-127.34 135.45-138.15Q151.24-148.95 166.75-148.95L166.75-148.95Q172.29-148.95 172.29-148.12Q172.29-147.29 170.08-144.52L170.08-144.52Q167.31-141.75 164.54-141.75L164.54-141.75Q141.27-141.75 117.45-102.97L117.45-102.97Q84.76-49.23 45.98 36.64Q7.20 122.51 7.20 152.43L7.20 152.43Q7.20 167.94 17.73 167.94L17.73 167.94Q21.61 167.94 32.96 163.23Q44.32 158.52 55.12 148.55Q65.93 138.58 73.13 130.27Q80.33 121.96 84.76 116.42Q89.19 110.88 93.35 105.34Q97.50 99.80 98.06 99.24L98.06 99.24Q101.38 94.26 102.49 98.41Q103.60 102.57 101.66 105.06Q99.72 107.55 94.73 114.20Q89.75 120.85 85.59 125.84Q81.44 130.82 74.51 138.85Q67.59 146.89 61.49 152.98L61.49 152.98Q33.79 179.02 11.63 179.02ZM419.93-114.32Q448.19-126.23 465.36-126.23Q482.53-126.23 492.51-122.36Q502.48-118.48 508.57-113.49Q514.67-108.51 514.67-104.07Q514.67-99.64 513.00-99.64Q511.34-99.64 504.42-106.29Q497.49-112.94 483.64-112.94Q469.79-112.94 434.34-98.53L434.34-98.53Q375.06-73.05 335.17-51.17Q295.28-29.28 222.71 23.35L222.71 23.35Q229.36 41.63 245.42 70.99Q261.49 100.35 280.05 122.79Q298.61 145.23 312.18 151.32Q325.75 157.41 331.85 157.41Q337.94 157.41 344.87 156.31Q351.79 155.20 365.36 144.95Q378.94 134.70 387.80 124.73Q396.66 114.76 408.30 99.24L408.30 99.24Q412.73 93.15 414.39 97.58L414.39 97.58Q414.39 100.91 411.62 105.34L411.62 105.34Q382.81 145.23 362.04 162.40Q341.26 179.57 320.21 179.57L320.21 179.57Q290.30 179.57 262.04 142.46L262.04 142.46Q234.90 107.00 211.07 54.92L211.07 54.92Q201.66 34.43 201.10 33.32L201.10 33.32Q248.75-10.45 330.74-61.42L330.74-61.42Q391.68-102.41 419.93-114.32ZM86.15 180.13Q79.22 186.22 76.45 186.22Q73.68 186.22 73.68 184.01L73.68 184.01Q73.68 183.45 74.24 182.90L74.24 182.90Q98.06 163.51 117.45 130.27L117.45 130.27Q162.32 54.37 226.03-61.42L226.03-61.42Q252.62-107.95 290.85-118.48L290.85-118.48Q242.65-117.37 214.40-110.72L214.40-110.72Q172.29-101.30 172.29-68.06L172.29-68.06Q172.29-53.66 180.05-48.12L180.05-48.12Q182.27-46.46 179.50-44.80Q176.73-43.13 173.40-45.07Q170.08-47.01 162.88-57.54L162.88-57.54Q151.80-74.16 151.80-86.35Q151.80-98.53 157.89-107.68Q163.98-116.82 182.82-120.69L182.82-120.69Q211.63-127.34 244.87-127.34L244.87-127.34Q245.98-127.34 273.40-127.34Q300.82-127.34 308.58-128.73Q316.33-130.11 317.44-130.11L317.44-130.11Q322.43-130.11 323.54-124.02L323.54-124.02Q323.54-118.48 318.55-118.48L318.55-118.48Q315.23-119.59 311.90-119.59L311.90-119.59Q286.97-119.59 261.49-74.71L261.49-74.71Q199.44 29.99 140.16 148.55L140.16 148.55Q139.05 150.77 136.01 158.52Q132.96 166.28 130.19 169.60Q127.42 172.93 122.99 172.09Q118.56 171.26 113.57 171.26Q108.58 171.26 100.83 172.65Q93.07 174.03 86.15 180.13Z"/></g>
</svg>